<svg width="86" height="86" viewBox="0 0 86 86" fill="none" xmlns="http://www.w3.org/2000/svg">
<g clip-path="url(#clip0_491_9192)">
<path d="M44.3438 40.3125V37.625C44.3438 37.2686 44.2022 36.9268 43.9502 36.6748C43.6982 36.4228 43.3564 36.2812 43 36.2812C42.6436 36.2812 42.3018 36.4228 42.0498 36.6748C41.7978 36.9268 41.6562 37.2686 41.6562 37.625V40.3125C41.6562 40.6689 41.7978 41.0107 42.0498 41.2627C42.3018 41.5147 42.6436 41.6562 43 41.6562C43.3564 41.6562 43.6982 41.5147 43.9502 41.2627C44.2022 41.0107 44.3438 40.6689 44.3438 40.3125Z" fill="#008EA5"/>
<path d="M51.0625 40.3125V37.625C51.0625 37.2686 50.9209 36.9268 50.6689 36.6748C50.4169 36.4228 50.0751 36.2812 49.7188 36.2812C49.3624 36.2812 49.0206 36.4228 48.7686 36.6748C48.5166 36.9268 48.375 37.2686 48.375 37.625V40.3125C48.375 40.6689 48.5166 41.0107 48.7686 41.2627C49.0206 41.5147 49.3624 41.6562 49.7188 41.6562C50.0751 41.6562 50.4169 41.5147 50.6689 41.2627C50.9209 41.0107 51.0625 40.6689 51.0625 40.3125Z" fill="#008EA5"/>
<path d="M37.625 40.3125V37.625C37.625 37.2686 37.4834 36.9268 37.2314 36.6748C36.9794 36.4228 36.6376 36.2812 36.2812 36.2812C35.9249 36.2812 35.5831 36.4228 35.3311 36.6748C35.0791 36.9268 34.9375 37.2686 34.9375 37.625V40.3125C34.9375 40.6689 35.0791 41.0107 35.3311 41.2627C35.5831 41.5147 35.9249 41.6562 36.2812 41.6562C36.6376 41.6562 36.9794 41.5147 37.2314 41.2627C37.4834 41.0107 37.625 40.6689 37.625 40.3125Z" fill="#008EA5"/>
<path d="M44.3438 49.7188V47.0312C44.3438 46.6749 44.2022 46.3331 43.9502 46.0811C43.6982 45.8291 43.3564 45.6875 43 45.6875C42.6436 45.6875 42.3018 45.8291 42.0498 46.0811C41.7978 46.3331 41.6562 46.6749 41.6562 47.0312V49.7188C41.6562 50.0751 41.7978 50.4169 42.0498 50.6689C42.3018 50.9209 42.6436 51.0625 43 51.0625C43.3564 51.0625 43.6982 50.9209 43.9502 50.6689C44.2022 50.4169 44.3438 50.0751 44.3438 49.7188Z" fill="#008EA5"/>
<path d="M51.0625 49.7188V47.0312C51.0625 46.6749 50.9209 46.3331 50.6689 46.0811C50.4169 45.8291 50.0751 45.6875 49.7188 45.6875C49.3624 45.6875 49.0206 45.8291 48.7686 46.0811C48.5166 46.3331 48.375 46.6749 48.375 47.0312V49.7188C48.375 50.0751 48.5166 50.4169 48.7686 50.6689C49.0206 50.9209 49.3624 51.0625 49.7188 51.0625C50.0751 51.0625 50.4169 50.9209 50.6689 50.6689C50.9209 50.4169 51.0625 50.0751 51.0625 49.7188Z" fill="#008EA5"/>
<path d="M37.625 49.7188V47.0312C37.625 46.6749 37.4834 46.3331 37.2314 46.0811C36.9794 45.8291 36.6376 45.6875 36.2812 45.6875C35.9249 45.6875 35.5831 45.8291 35.3311 46.0811C35.0791 46.3331 34.9375 46.6749 34.9375 47.0312V49.7188C34.9375 50.0751 35.0791 50.4169 35.3311 50.6689C35.5831 50.9209 35.9249 51.0625 36.2812 51.0625C36.6376 51.0625 36.9794 50.9209 37.2314 50.6689C37.4834 50.4169 37.625 50.0751 37.625 49.7188Z" fill="#008EA5"/>
<path d="M35.3272 70.2648L31.2959 74.2961C31.17 74.421 31.07 74.5696 31.0018 74.7334C30.9336 74.8971 30.8985 75.0727 30.8985 75.2501C30.8985 75.4275 30.9336 75.6032 31.0018 75.7669C31.07 75.9306 31.17 76.0793 31.2959 76.2042L35.3272 80.2354C35.5802 80.4885 35.9234 80.6306 36.2813 80.6306C36.6391 80.6306 36.9823 80.4885 37.2353 80.2354C37.4884 79.9824 37.6305 79.6392 37.6305 79.2814C37.6305 78.9235 37.4884 78.5804 37.2353 78.3273L34.1447 75.2501L37.2353 72.1729C37.4884 71.9199 37.6305 71.5767 37.6305 71.2189C37.6305 70.861 37.4884 70.5179 37.2353 70.2648C36.9823 70.0118 36.6391 69.8696 36.2813 69.8696C35.9234 69.8696 35.5802 70.0118 35.3272 70.2648Z" fill="#008EA5"/>
<path d="M50.6728 70.2648C50.5475 70.1395 50.3988 70.0401 50.2351 69.9723C50.0714 69.9045 49.8959 69.8696 49.7188 69.8696C49.5416 69.8696 49.3661 69.9045 49.2024 69.9723C49.0387 70.0401 48.89 70.1395 48.7647 70.2648C48.6394 70.3901 48.54 70.5388 48.4722 70.7025C48.4044 70.8662 48.3695 71.0417 48.3695 71.2189C48.3695 71.3961 48.4044 71.5715 48.4722 71.7352C48.54 71.8989 48.6394 72.0477 48.7647 72.1729L51.8553 75.2501L48.7647 78.3273C48.5752 78.5153 48.4459 78.7554 48.3934 79.0171C48.3409 79.2788 48.3676 79.5502 48.4699 79.7967C48.5723 80.0432 48.7457 80.2536 48.9681 80.4012C49.1905 80.5487 49.4518 80.6267 49.7188 80.6251C50.4578 80.6251 50.2966 80.6251 54.7041 76.2042C54.83 76.0793 54.93 75.9306 54.9982 75.7669C55.0664 75.6032 55.1015 75.4275 55.1015 75.2501C55.1015 75.0727 55.0664 74.8971 54.9982 74.7334C54.93 74.5696 54.83 74.421 54.7041 74.2961L50.6728 70.2648Z" fill="#008EA5"/>
<path d="M43.0672 70.7888L40.3797 78.8513C40.3113 79.0537 40.2922 79.2695 40.3239 79.4808C40.3556 79.6921 40.4373 79.8928 40.5621 80.0662C40.6869 80.2396 40.8513 80.3808 41.0416 80.478C41.2319 80.5752 41.4426 80.6256 41.6562 80.625C43 80.625 42.7716 80.195 45.6875 71.6488C45.8015 71.3013 45.7729 70.9227 45.6078 70.5964C45.4428 70.2701 45.1548 70.0226 44.8073 69.9086C44.4599 69.7946 44.0813 69.8232 43.755 69.9883C43.4286 70.1533 43.1812 70.4413 43.0672 70.7888Z" fill="#008EA5"/>
<path d="M17.4688 52.4062H24.1875C24.5439 52.4062 24.8857 52.2647 25.1377 52.0127C25.3897 51.7607 25.5312 51.4189 25.5312 51.0625C25.5312 50.7061 25.3897 50.3643 25.1377 50.1123C24.8857 49.8603 24.5439 49.7188 24.1875 49.7188H17.4688C17.1124 49.7188 16.7706 49.8603 16.5186 50.1123C16.2666 50.3643 16.125 50.7061 16.125 51.0625C16.125 51.4189 16.2666 51.7607 16.5186 52.0127C16.7706 52.2647 17.1124 52.4062 17.4688 52.4062Z" fill="#008EA5"/>
<path d="M17.4688 59.125H24.1875C24.5439 59.125 24.8857 58.9834 25.1377 58.7314C25.3897 58.4794 25.5312 58.1376 25.5312 57.7812C25.5312 57.4249 25.3897 57.0831 25.1377 56.8311C24.8857 56.5791 24.5439 56.4375 24.1875 56.4375H17.4688C17.1124 56.4375 16.7706 56.5791 16.5186 56.8311C16.2666 57.0831 16.125 57.4249 16.125 57.7812C16.125 58.1376 16.2666 58.4794 16.5186 58.7314C16.7706 58.9834 17.1124 59.125 17.4688 59.125Z" fill="#008EA5"/>
<path d="M68.5312 49.7188H61.8125C61.4561 49.7188 61.1143 49.8603 60.8623 50.1123C60.6103 50.3643 60.4688 50.7061 60.4688 51.0625C60.4688 51.4189 60.6103 51.7607 60.8623 52.0127C61.1143 52.2647 61.4561 52.4062 61.8125 52.4062H68.5312C68.8876 52.4062 69.2294 52.2647 69.4814 52.0127C69.7334 51.7607 69.875 51.4189 69.875 51.0625C69.875 50.7061 69.7334 50.3643 69.4814 50.1123C69.2294 49.8603 68.8876 49.7188 68.5312 49.7188Z" fill="#008EA5"/>
<path d="M68.5312 56.4375H61.8125C61.4561 56.4375 61.1143 56.5791 60.8623 56.8311C60.6103 57.0831 60.4688 57.4249 60.4688 57.7812C60.4688 58.1376 60.6103 58.4794 60.8623 58.7314C61.1143 58.9834 61.4561 59.125 61.8125 59.125H68.5312C68.8876 59.125 69.2294 58.9834 69.4814 58.7314C69.7334 58.4794 69.875 58.1376 69.875 57.7812C69.875 57.4249 69.7334 57.0831 69.4814 56.8311C69.2294 56.5791 68.8876 56.4375 68.5312 56.4375Z" fill="#008EA5"/>
<path d="M84.6562 0H1.34375C0.987365 0 0.645577 0.141573 0.393575 0.393575C0.141573 0.645577 0 0.987365 0 1.34375L0 69.875C0 70.2314 0.141573 70.5732 0.393575 70.8252C0.645577 71.0772 0.987365 71.2188 1.34375 71.2188H10.75V83.3125H1.34375C0.987365 83.3125 0.645577 83.4541 0.393575 83.7061C0.141573 83.9581 0 84.2999 0 84.6562C0 85.0126 0.141573 85.3544 0.393575 85.6064C0.645577 85.8584 0.987365 86 1.34375 86H84.6562C85.0126 86 85.3544 85.8584 85.6064 85.6064C85.8584 85.3544 86 85.0126 86 84.6562C86 84.2999 85.8584 83.9581 85.6064 83.7061C85.3544 83.4541 85.0126 83.3125 84.6562 83.3125H75.25V71.2188H84.6562C85.0126 71.2188 85.3544 71.0772 85.6064 70.8252C85.8584 70.5732 86 70.2314 86 69.875V1.34375C86 0.987365 85.8584 0.645577 85.6064 0.393575C85.3544 0.141573 85.0126 0 84.6562 0ZM2.6875 2.6875H83.3125V10.75H2.6875V2.6875ZM13.4375 45.6875H28.2188V59.4341C27.8694 59.5819 28.0306 59.4341 24.3219 63.1831C23.9591 63.1831 25.6656 63.1831 17.4688 63.1831C17.1124 63.1831 16.7706 63.3247 16.5186 63.5767C16.2666 63.8287 16.125 64.1705 16.125 64.5269C16.125 64.8833 16.2666 65.225 16.5186 65.4771C16.7706 65.7291 17.1124 65.8706 17.4688 65.8706H21.8091C21.3253 67.0263 22.2794 67.5369 24.8594 70.1034C24.3756 69.8212 24.7788 69.9019 17.4688 69.9019C17.1124 69.9019 16.7706 70.0434 16.5186 70.2954C16.2666 70.5475 16.125 70.8892 16.125 71.2456C16.125 71.602 16.2666 71.9438 16.5186 72.1958C16.7706 72.4478 17.1124 72.5894 17.4688 72.5894C24.9131 72.5894 24.1875 72.5894 24.6041 72.5087C24.1917 73.3941 23.8502 74.3107 23.5828 75.25H18.8125C18.4561 75.25 18.1143 75.3916 17.8623 75.6436C17.6103 75.8956 17.4688 76.2374 17.4688 76.5938V83.3125H13.4375V45.6875ZM52.4062 29.5625H33.5938V26.875H52.4062V29.5625ZM55.0938 32.25V60.9391L52.9303 63.1562C51.4966 62.3242 49.9669 61.6699 48.375 61.2078V56.4375C48.375 56.0811 48.2334 55.7393 47.9814 55.4873C47.7294 55.2353 47.3876 55.0938 47.0312 55.0938H38.9688C38.6124 55.0938 38.2706 55.2353 38.0186 55.4873C37.7666 55.7393 37.625 56.0811 37.625 56.4375V61.2078C36.0331 61.6699 34.5034 62.3242 33.0697 63.1562L30.9062 60.9391V32.25H55.0938ZM25.4372 70.7753C25.37 70.5737 25.2088 70.4259 25.4372 70.6947V70.7753ZM20.1562 83.3125V77.9375C29.0116 77.9375 23.5828 78.5556 28.2994 71.2188C28.4667 70.961 28.5406 70.6537 28.5089 70.348C28.4771 70.0424 28.3415 69.7569 28.1247 69.5391L24.94 66.3678L28.7428 62.565C35.0584 68.8941 30.8256 65.4272 39.2509 63.5728C39.5565 63.5073 39.8297 63.3372 40.0235 63.0919C40.2173 62.8467 40.3195 62.5415 40.3125 62.2291V57.7812H45.6875C45.6875 66.6366 45.0694 61.2078 52.4062 65.9244C52.664 66.0917 52.9713 66.1656 53.277 66.1339C53.5826 66.1021 53.8681 65.9665 54.0859 65.7497L57.2572 62.565L61.06 66.3678L57.8753 69.5391C56.5316 70.8828 58.91 71.6487 60.0522 76.8759C60.1177 77.1815 60.2878 77.4547 60.5331 77.6485C60.7783 77.8423 61.0835 77.9445 61.3959 77.9375H65.8438V83.3125H20.1562ZM60.4688 70.6947C60.7375 70.4259 60.5762 70.5737 60.4688 70.7753V70.6947ZM68.5312 83.3125V76.5938C68.5312 76.2374 68.3897 75.8956 68.1377 75.6436C67.8857 75.3916 67.5439 75.25 67.1875 75.25H62.4172C62.1511 74.3015 61.8096 73.3759 61.3959 72.4819C61.8125 72.5625 61.0869 72.5625 68.5312 72.5625C68.8876 72.5625 69.2294 72.4209 69.4814 72.1689C69.7334 71.9169 69.875 71.5751 69.875 71.2188C69.875 70.8624 69.7334 70.5206 69.4814 70.2686C69.2294 70.0166 68.8876 69.875 68.5312 69.875C61.2616 69.875 61.6244 69.7944 61.1406 70.0766C63.8281 67.3891 64.6613 66.9456 64.1909 65.8438H68.5312C68.8876 65.8438 69.2294 65.7022 69.4814 65.4502C69.7334 65.1982 69.875 64.8564 69.875 64.5C69.875 64.1436 69.7334 63.8018 69.4814 63.5498C69.2294 63.2978 68.8876 63.1562 68.5312 63.1562C59.9581 63.1562 62.0275 63.1562 61.6781 63.1562C57.9559 59.4341 58.1441 59.555 57.7812 59.4206V45.6875H72.5625V83.3125H68.5312ZM75.25 68.5312V44.3438C75.25 43.9874 75.1084 43.6456 74.8564 43.3936C74.6044 43.1416 74.2626 43 73.9062 43H57.7812V30.9062C57.7812 30.5499 57.6397 30.2081 57.3877 29.9561C57.1357 29.7041 56.7939 29.5625 56.4375 29.5625H55.0938V25.5312C55.0938 25.1749 54.9522 24.8331 54.7002 24.5811C54.4482 24.3291 54.1064 24.1875 53.75 24.1875H32.25C31.8936 24.1875 31.5518 24.3291 31.2998 24.5811C31.0478 24.8331 30.9062 25.1749 30.9062 25.5312V29.5625H29.5625C29.2061 29.5625 28.8643 29.7041 28.6123 29.9561C28.3603 30.2081 28.2188 30.5499 28.2188 30.9062V43H12.0938C11.7374 43 11.3956 43.1416 11.1436 43.3936C10.8916 43.6456 10.75 43.9874 10.75 44.3438V68.5312H2.6875V13.4375H83.3125V68.5312H75.25Z" fill="#008EA5"/>
<path d="M8.0625 5.375C7.70612 5.375 7.36433 5.51657 7.11233 5.76858C6.86032 6.02058 6.71875 6.36237 6.71875 6.71875C6.71875 7.07513 6.86032 7.41692 7.11233 7.66892C7.36433 7.92093 7.70612 8.0625 8.0625 8.0625C8.41888 8.0625 8.76067 7.92093 9.01267 7.66892C9.26468 7.41692 9.40625 7.07513 9.40625 6.71875C9.40625 6.36237 9.26468 6.02058 9.01267 5.76858C8.76067 5.51657 8.41888 5.375 8.0625 5.375Z" fill="#008EA5"/>
<path d="M14.7812 5.375C14.4249 5.375 14.0831 5.51657 13.8311 5.76858C13.5791 6.02058 13.4375 6.36237 13.4375 6.71875C13.4375 7.07513 13.5791 7.41692 13.8311 7.66892C14.0831 7.92093 14.4249 8.0625 14.7812 8.0625C15.1376 8.0625 15.4794 7.92093 15.7314 7.66892C15.9834 7.41692 16.125 7.07513 16.125 6.71875C16.125 6.36237 15.9834 6.02058 15.7314 5.76858C15.4794 5.51657 15.1376 5.375 14.7812 5.375Z" fill="#008EA5"/>
<path d="M21.5 5.375C21.1436 5.375 20.8018 5.51657 20.5498 5.76858C20.2978 6.02058 20.1562 6.36237 20.1562 6.71875C20.1562 7.07513 20.2978 7.41692 20.5498 7.66892C20.8018 7.92093 21.1436 8.0625 21.5 8.0625C21.8564 8.0625 22.1982 7.92093 22.4502 7.66892C22.7022 7.41692 22.8438 7.07513 22.8438 6.71875C22.8438 6.36237 22.7022 6.02058 22.4502 5.76858C22.1982 5.51657 21.8564 5.375 21.5 5.375Z" fill="#008EA5"/>
</g>
<defs>
<clipPath id="clip0_491_9192">
<rect width="86" height="86" fill="white"/>
</clipPath>
</defs>
</svg>
